<svg width="13" height="15" viewBox="0 0 13 15" fill="none" xmlns="http://www.w3.org/2000/svg">
<path fill-rule="evenodd" clip-rule="evenodd" d="M10.1677 1.43307C7.85419 1.0919 5.47912 1.0919 3.16561 1.43307C2.73023 1.49728 2.38444 1.79152 2.29765 2.17052C1.50801 5.61889 1.46492 9.16734 2.17065 12.6298L2.31657 13.3456L5.59131 10.6091C6.19392 10.1055 7.13939 10.1055 7.742 10.6091L11.0167 13.3456L11.1627 12.6298C11.8684 9.16734 11.8253 5.61889 11.0357 2.17052C10.9489 1.79152 10.6031 1.49728 10.1677 1.43307ZM2.94435 0.272082C5.40435 -0.0906939 7.92897 -0.090694 10.389 0.272082C11.3697 0.416704 12.1508 1.07892 12.3476 1.93807C13.1704 5.53157 13.2153 9.22937 12.4799 12.8375L12.2823 13.807C12.1165 14.6207 10.9887 14.9459 10.3074 14.3765L6.82028 11.4625C6.73419 11.3906 6.59912 11.3906 6.51304 11.4625L3.02595 14.3765C2.3446 14.9459 1.21686 14.6207 1.051 13.807L0.853399 12.8375C0.117965 9.22937 0.162863 5.53158 0.985739 1.93807C1.18247 1.07893 1.96366 0.416704 2.94435 0.272082Z" fill="black"/>
</svg>
