<svg width="60" height="60" viewBox="0 0 60 60" fill="none" xmlns="http://www.w3.org/2000/svg">
<g clip-path="url(#clip0)">
<path d="M8.47806 33.7711C8.12787 34.1125 8.12054 34.6733 8.46203 35.0235C8.63553 35.2016 8.86578 35.2908 9.09604 35.2908C9.31897 35.2908 9.54236 35.2075 9.71448 35.0395C11.4846 33.3142 10.7595 31.8942 10.2794 30.9544C9.82846 30.0728 9.64215 29.7075 10.592 28.8135C10.9477 28.4784 10.9651 27.9176 10.6295 27.5619C10.2945 27.2053 9.7337 27.1889 9.37802 27.5239C7.45953 29.3294 8.20706 30.7924 8.7019 31.7606C9.13449 32.607 9.31347 32.9571 8.47806 33.7711Z" fill="url(#paint0_linear)"/>
<path d="M13.3799 29.0227C13.0297 29.3642 13.0224 29.9249 13.3639 30.2751C13.5374 30.4532 13.7676 30.5424 13.9983 30.5424C14.2208 30.5424 14.4442 30.4591 14.6163 30.2911C16.3874 28.5649 15.6605 27.1449 15.1794 26.2056C14.728 25.3239 14.5412 24.9586 15.4906 24.0651C15.8468 23.73 15.8637 23.1692 15.5286 22.8136C15.1931 22.457 14.6323 22.4405 14.2767 22.7756C12.3582 24.5814 13.1071 26.0445 13.6028 27.0126C14.0359 27.8586 14.2149 28.2088 13.3799 29.0227Z" fill="url(#paint1_linear)"/>
<path d="M26.3934 24.0033C26.6227 24.0033 26.8516 23.9145 27.0251 23.7373C27.3135 23.4814 28.603 23.4842 28.8878 23.7401C29.2329 24.0871 29.7937 24.0889 30.1402 23.7442C30.4872 23.3995 30.489 22.8387 30.1443 22.4918C29.5039 21.8468 28.4094 21.774 27.9493 21.774C27.9434 21.774 27.9374 21.774 27.9315 21.774C27.4893 21.7758 26.3929 21.85 25.7608 22.4968C25.4188 22.8465 25.4239 23.4087 25.774 23.7506C25.9462 23.9191 26.17 24.0033 26.3934 24.0033Z" fill="url(#paint2_linear)"/>
<path d="M33.5663 24.0033C33.7957 24.0033 34.0245 23.9145 34.1976 23.7373C34.486 23.4814 35.7759 23.4842 36.0607 23.7401C36.4054 24.0871 36.9661 24.0889 37.3131 23.7442C37.6601 23.3995 37.6619 22.8387 37.3172 22.4918C36.6764 21.8468 35.5823 21.774 35.1223 21.774C35.1158 21.774 35.1099 21.774 35.1044 21.774C34.6622 21.7758 33.5659 21.85 32.9337 22.4968C32.5917 22.8465 32.5968 23.4087 32.9465 23.7502C33.1191 23.9191 33.3425 24.0033 33.5663 24.0033Z" fill="url(#paint3_linear)"/>
<path d="M31.627 13.1419C32.1159 13.1419 32.5123 12.7455 32.5123 12.2562V8.18893C32.5123 7.70004 32.1159 7.30362 31.627 7.30362C31.1376 7.30362 30.7412 7.70004 30.7412 8.18893V12.2562C30.7412 12.7455 31.1376 13.1419 31.627 13.1419Z" fill="url(#paint4_linear)"/>
<path d="M25.6138 9.142C25.1249 9.142 24.7285 9.53842 24.7285 10.0278V14.0918C24.7285 14.5807 25.1249 14.9771 25.6138 14.9771C26.1032 14.9771 26.4996 14.5807 26.4996 14.0918V10.0278C26.4996 9.53842 26.1032 9.142 25.6138 9.142Z" fill="url(#paint5_linear)"/>
<path d="M37.6397 14.9771C38.1286 14.9771 38.525 14.5807 38.525 14.0913V10.0273C38.525 9.53842 38.1286 9.142 37.6397 9.142C37.1503 9.142 36.7539 9.53842 36.7539 10.0273V14.0913C36.7539 14.5807 37.1503 14.9771 37.6397 14.9771Z" fill="url(#paint6_linear)"/>
<path d="M56.564 32.3415C58.4587 32.3415 60 30.7988 60 28.9028V21.1913C60 19.2957 58.4587 17.753 56.564 17.753H52.8044C50.9097 17.753 49.3684 19.2957 49.3684 21.1913V28.9028C49.3684 30.7988 50.9097 32.3415 52.8044 32.3415H53.7987V44.7432H53.0653C52.8117 44.7432 52.5655 44.7753 52.3306 44.8352L51.4856 41.2555C50.5037 37.0931 47.0467 34.8422 41.2102 34.5658C41.2061 34.5653 41.2019 34.5653 41.1978 34.5653C40.7277 34.5497 40.3262 34.465 39.9715 34.2966C39.9577 34.2902 39.9445 34.2829 39.9303 34.2769C39.5078 34.0673 39.1512 33.734 38.8229 33.252C39.0115 33.1069 39.1983 32.9585 39.3791 32.8038C41.9394 30.618 43.3488 27.8449 43.3488 24.9944V19.2929C43.3621 19.2055 43.3617 19.119 43.3488 19.0352V13.2221C45.0073 12.0062 45.6917 10.2681 45.1836 8.49154C44.5642 6.32586 42.3537 4.81341 39.8071 4.81341H37.3091C36.5387 3.03591 34.8633 1.87869 32.7068 1.67223C30.092 1.4223 27.5473 2.67016 26.2033 4.81341H23.817C21.2338 4.81341 18.9908 6.34829 18.3623 8.54601C17.8601 10.3034 18.5321 12.0209 20.1663 13.2216V23.4352V23.4435V25.454C20.1663 28.44 21.9855 30.7892 23.5117 32.2335C23.8774 32.58 24.2647 32.9096 24.6666 33.2208C24.3315 33.7216 23.9671 34.0663 23.5323 34.2806C23.5309 34.2815 23.53 34.2819 23.5286 34.2824C23.166 34.4605 22.755 34.5493 22.2711 34.5653C22.267 34.5653 22.2629 34.5658 22.2588 34.5658C21.3629 34.6083 20.5234 34.6976 19.7401 34.8331C19.7369 34.8335 19.7337 34.834 19.7305 34.8349C15.8762 35.5037 13.3864 37.2972 12.3056 40.1866H2.99332C1.34262 40.1866 0 41.5315 0 43.185C0 44.8366 1.34262 46.1806 2.99332 46.1806H5.29495C6.18027 48.2392 7.5499 49.9924 9.29901 51.314H8.43796C6.99509 51.314 5.82138 52.4886 5.82138 53.9324V55.741C5.82138 57.1848 6.99509 58.3594 8.43796 58.3594H13.6249C14.1138 58.3594 14.5102 57.963 14.5102 57.4741C14.5102 56.9847 14.1138 56.5883 13.6249 56.5883H8.43796C7.9715 56.5883 7.59247 56.2084 7.59247 55.741V53.9324C7.59247 53.465 7.97195 53.085 8.43796 53.085H26.8826C27.2896 53.085 27.6302 53.3744 27.7107 53.7589C27.7135 53.7882 27.718 53.817 27.724 53.8458C27.7272 53.8742 27.7286 53.9031 27.7286 53.9324V55.741C27.7286 56.2084 27.3491 56.5883 26.8826 56.5883H17.6587C17.1698 56.5883 16.7734 56.9847 16.7734 57.4741C16.7734 57.963 17.1698 58.3594 17.6587 58.3594H26.8826C28.326 58.3594 29.4997 57.1848 29.4997 55.741V54.5499H50.1018C50.1759 56.1237 51.4764 57.3807 53.0649 57.3807H54.684C57.2127 57.3807 59.2699 55.3221 59.2699 52.7916V49.3323C59.2699 47.1053 57.6759 45.244 55.5693 44.8302V32.3415H56.564ZM49.7617 41.6625L50.7513 45.857C50.3435 46.3655 50.0986 47.0105 50.0986 47.7123V52.7788H47.58L46.132 44.3944C45.9531 43.3269 45.3401 42.5226 44.512 42.1884V36.8047C47.4435 37.5554 49.1716 39.1603 49.7617 41.6625ZM42.7409 36.4742V42.0186H40.4713V36.2737C40.6805 36.3062 40.9003 36.3272 41.1324 36.335C41.6968 36.362 42.2319 36.4092 42.7409 36.4742ZM34.4275 42.0186C33.9716 40.9429 32.9059 40.1866 31.6667 40.1866H24.8378V37.4877C26.5269 38.7204 28.9774 39.2711 31.1247 39.3535C31.3124 39.3608 31.5038 39.3645 31.6978 39.3645C34.0347 39.3645 36.7978 38.828 38.7003 37.4108V42.0186H34.4275ZM30.1529 43.7366C30.2985 43.0779 30.3177 42.4741 30.2151 41.9573H31.6667C32.3424 41.9573 32.8922 42.508 32.8922 43.185C32.8922 43.8602 32.3424 44.409 31.6667 44.409H29.984C30.0458 44.187 30.1025 43.9632 30.1529 43.7366ZM41.5778 19.8725V22.2592C40.6883 21.8738 39.5444 21.0668 39.3732 19.4435C40.1093 19.5685 40.8444 19.7118 41.5778 19.8725ZM24.1045 19.4445C23.9337 21.0315 22.8287 21.8404 21.9374 22.2382V19.8706C22.6584 19.7109 23.3812 19.569 24.1045 19.4445ZM21.9374 25.454V24.126C22.4863 23.947 23.2356 23.6298 23.9369 23.0882C24.8428 22.3897 25.8563 21.1647 25.8998 19.1716C27.2337 18.9958 28.5663 18.8796 29.8888 18.8256C30.3777 18.8059 30.7576 18.3934 30.7379 17.905C30.7178 17.4161 30.303 17.038 29.8169 17.0558C28.1886 17.1222 26.5466 17.2788 24.9046 17.5223C24.8973 17.5228 24.89 17.5228 24.8827 17.5237C24.8511 17.5273 24.8204 17.5324 24.7897 17.5388C23.838 17.6825 22.8864 17.8556 21.937 18.0579V12.7524C21.937 12.4466 21.7795 12.1623 21.5195 12.0008C20.2592 11.2157 19.7424 10.1619 20.0656 9.03262C20.4131 7.81634 21.8134 6.5845 23.817 6.5845H26.7174C27.0497 6.5845 27.3541 6.39864 27.5056 6.10293C28.5681 4.02972 30.7979 3.26891 32.5378 3.43554C34.1931 3.59393 35.4268 4.53234 35.8379 5.94637C35.9477 6.32449 36.2943 6.5845 36.6884 6.5845H39.8071C41.8607 6.5845 43.1506 7.82595 43.4802 8.97906C43.8034 10.1102 43.2623 11.2116 41.9952 12.0008C41.7352 12.1623 41.5778 12.4466 41.5778 12.7524V18.0583C40.6233 17.8578 39.6661 17.6876 38.709 17.5443C38.6723 17.5356 38.6348 17.5278 38.5963 17.5237C38.5844 17.5223 38.5725 17.5223 38.5606 17.5214C37.0688 17.303 35.5774 17.1529 34.0974 17.0764C33.6113 17.0508 33.1924 17.4266 33.1673 17.9151C33.1421 18.4035 33.5179 18.8201 34.0063 18.8452C35.191 18.9061 36.384 19.0183 37.5787 19.1744C37.6213 21.2535 38.714 22.5023 39.6899 23.205C40.3656 23.6911 41.0651 23.9768 41.5778 24.1393V24.9944C41.5778 27.318 40.3885 29.6132 38.2292 31.4571C36.3103 33.095 33.7981 34.1863 31.674 34.3048C31.6223 34.3076 31.5688 34.3094 31.5134 34.3094C30.271 34.309 28.2678 33.5866 26.3809 32.2824C26.3521 32.2595 26.3214 32.2389 26.2903 32.2197C25.7524 31.8421 25.2255 31.4168 24.7293 30.9471C23.4558 29.7418 21.9374 27.8101 21.9374 25.454ZM31.5138 36.0805C31.6013 36.0805 31.6878 36.0778 31.772 36.0732C33.5861 35.972 35.5605 35.3128 37.3558 34.2472C37.6167 34.6308 37.939 35.013 38.3446 35.3435C36.899 37.0185 33.8351 37.685 31.1929 37.5838C28.4468 37.4785 26.1374 36.6019 25.1303 35.3389C25.5396 35.0038 25.8632 34.6166 26.1255 34.2284C27.99 35.3733 29.978 36.0805 31.5138 36.0805ZM22.3366 36.3355C22.5948 36.3263 22.8374 36.3007 23.0672 36.2618V40.1866H20.7976V36.465C21.2856 36.4051 21.7978 36.3611 22.3366 36.3355ZM19.0265 36.7868V40.1866H14.2374C15.0934 38.4984 16.6777 37.3723 19.0265 36.7868ZM2.99332 44.409C2.31949 44.409 1.77109 43.8602 1.77109 43.185C1.77109 42.508 2.31949 41.9573 2.99332 41.9573H4.4458C4.3428 42.4741 4.36203 43.0779 4.5076 43.7366V43.738C4.55795 43.9646 4.61517 44.188 4.6756 44.409H2.99332ZM12.8545 51.314C9.46335 49.9256 7.05597 47.0334 6.23703 43.3544C6.08688 42.6764 6.15738 42.1948 6.28601 42.0342C6.30478 42.0113 6.34781 41.9577 6.54144 41.9577H12.9414H12.9446H12.9474H28.1186C28.3136 41.9577 28.3571 42.0113 28.3754 42.0342C28.5036 42.1939 28.5732 42.675 28.4235 43.3539C27.6324 46.9272 25.1976 49.8908 21.8935 51.314H12.8545ZM29.2314 52.7788C28.8043 51.9118 27.9121 51.314 26.8831 51.314H25.3555C27.09 49.9768 28.4688 48.2108 29.3559 46.1801H31.6667C33.1123 46.1801 34.3217 45.1525 34.6024 43.7892H43.6263C44.2172 43.7892 44.3697 44.5954 44.3857 44.6915L45.7828 52.7788H29.2314ZM57.4988 49.3323V52.7916C57.4988 54.3453 56.2363 55.6096 54.684 55.6096H53.0653C52.4057 55.6096 51.8692 55.0708 51.8692 54.4084V47.7123C51.8692 47.3465 52.034 47.0192 52.2926 46.7995C52.3009 46.7931 52.3087 46.7867 52.3164 46.7798C52.5215 46.6141 52.782 46.5143 53.0649 46.5143H54.684C56.2363 46.5143 57.4988 47.7786 57.4988 49.3323ZM51.1391 28.9028V21.1913C51.1391 20.2721 51.8861 19.5241 52.8044 19.5241H56.564C57.4818 19.5241 58.2289 20.2721 58.2289 21.1913V28.9028C58.2289 29.8224 57.4818 30.5704 56.564 30.5704H52.8044C51.8861 30.5704 51.1391 29.8224 51.1391 28.9028Z" fill="url(#paint7_linear)"/>
</g>
<defs>
<linearGradient id="paint0_linear" x1="9.50258" y1="27.2832" x2="9.50258" y2="35.2908" gradientUnits="userSpaceOnUse">
<stop stop-color="#97CC3B"/>
<stop offset="1" stop-color="#F99C1D"/>
</linearGradient>
<linearGradient id="paint1_linear" x1="14.4017" y1="22.5348" x2="14.4017" y2="30.5424" gradientUnits="userSpaceOnUse">
<stop stop-color="#97CC3B"/>
<stop offset="1" stop-color="#F99C1D"/>
</linearGradient>
<linearGradient id="paint2_linear" x1="27.9547" y1="21.774" x2="27.9547" y2="24.0033" gradientUnits="userSpaceOnUse">
<stop stop-color="#97CC3B"/>
<stop offset="1" stop-color="#F99C1D"/>
</linearGradient>
<linearGradient id="paint3_linear" x1="35.1276" y1="21.774" x2="35.1276" y2="24.0033" gradientUnits="userSpaceOnUse">
<stop stop-color="#97CC3B"/>
<stop offset="1" stop-color="#F99C1D"/>
</linearGradient>
<linearGradient id="paint4_linear" x1="31.6268" y1="7.30362" x2="31.6268" y2="13.1419" gradientUnits="userSpaceOnUse">
<stop stop-color="#97CC3B"/>
<stop offset="1" stop-color="#F99C1D"/>
</linearGradient>
<linearGradient id="paint5_linear" x1="25.6141" y1="9.142" x2="25.6141" y2="14.9771" gradientUnits="userSpaceOnUse">
<stop stop-color="#97CC3B"/>
<stop offset="1" stop-color="#F99C1D"/>
</linearGradient>
<linearGradient id="paint6_linear" x1="37.6395" y1="9.142" x2="37.6395" y2="14.9771" gradientUnits="userSpaceOnUse">
<stop stop-color="#97CC3B"/>
<stop offset="1" stop-color="#F99C1D"/>
</linearGradient>
<linearGradient id="paint7_linear" x1="30" y1="1.64059" x2="30" y2="58.3594" gradientUnits="userSpaceOnUse">
<stop stop-color="#97CC3B"/>
<stop offset="1" stop-color="#F99C1D"/>
</linearGradient>
<clipPath id="clip0">
<rect width="60" height="60" fill="white"/>
</clipPath>
</defs>
</svg>
