<svg width="60" height="60" viewBox="0 0 60 60" fill="none" xmlns="http://www.w3.org/2000/svg">
<g clip-path="url(#clip0)">
<path d="M44 41H38V43H44V41Z" fill="url(#paint0_linear)"/>
<path d="M10.167 22H5.16699V24H10.167V22Z" fill="url(#paint1_linear)"/>
<path d="M11.167 27H6.16699V29H11.167V27Z" fill="url(#paint2_linear)"/>
<path d="M28 21.0001H26V25H28V21.0001Z" fill="url(#paint3_linear)"/>
<path d="M32 28H30V32H32V28Z" fill="url(#paint4_linear)"/>
<path d="M22.4296 16.1771C20.3066 17.6471 19.4016 19.631 19.0506 20.683C18.2336 23.136 18.7006 25.265 19.0506 26.316L20.9476 25.683C20.6756 24.868 20.3136 23.216 20.9476 21.316C21.2196 20.501 21.9216 18.962 23.5686 17.8221L22.4296 16.1771Z" fill="url(#paint5_linear)"/>
<path d="M59.0001 34.0009H55.4601C56.4141 32.9379 57.0001 31.5389 57.0001 30.0009C57.0001 29.0149 56.7481 28.0449 56.2751 27.1759C58.5471 25.9829 60.0001 23.6399 60.0001 21.0009C60.0001 18.3519 58.4941 15.9639 56.2041 14.7819C56.7231 13.9309 57.0001 12.978 57.0001 12.001C57.0001 8.98297 54.3881 6.47898 51.0001 6.06198C51.0001 6.04198 51.0001 6.02198 51.0001 6.00098C51.0001 2.692 47.8601 0.00100708 44.0001 0.00100708C40.1402 0.00100708 37.0002 2.692 37.0002 6.00098C37.0002 6.02198 37.0002 6.04198 37.0002 6.06198C34.0532 6.42498 31.6962 8.36697 31.1312 10.852C29.5732 9.67797 27.8372 9.00097 26.0002 9.00097C22.5602 9.00097 19.4632 11.317 17.2732 15.0009H13.0003L17.8002 8.60097L16.2002 7.40098L12.0003 13.001V3.00099H10.0003V13.001L5.80028 7.40098L4.20029 8.60097L9.00027 15.0009H7.06428C4.82928 15.0009 2.78229 16.0289 1.4483 17.8219C0.114302 19.6149 -0.281697 21.8709 0.360301 24.0109L3.35629 34.0009H1.0003C0.6313 34.0009 0.292301 34.2039 0.118302 34.5289C-0.0556978 34.8539 -0.0366978 35.2489 0.168301 35.5549L16.1682 59.5548C16.3542 59.8338 16.6662 60.0008 17.0002 60.0008H44.0001C44.3451 60.0008 44.6651 59.8228 44.8481 59.5308L50.4731 50.5308L55.4731 42.5308L59.8481 35.5309C60.0401 35.2219 60.0511 34.8339 59.8741 34.5159C59.6981 34.1979 59.3641 34.0009 59.0001 34.0009ZM37.9992 8.00197C37.9962 8.01397 38.1012 8.00597 38.1222 8.00597C38.4292 8.00597 38.7192 7.86397 38.9092 7.62297C39.0982 7.38098 39.1662 7.06498 39.0932 6.76798C39.0312 6.51698 39.0002 6.25898 39.0002 6.00098C39.0002 3.79499 41.2431 2.001 44.0001 2.001C46.7571 2.001 49.0001 3.79499 49.0001 6.00098C49.0001 6.25898 48.9691 6.51698 48.9071 6.76798C48.8341 7.06598 48.9021 7.38098 49.0911 7.62297C49.2811 7.86397 49.5711 8.00597 49.8781 8.00597L50.0001 8.00097C52.7571 8.00097 55.0001 9.79497 55.0001 12.001C55.0001 12.921 54.6141 13.7879 53.8851 14.5079C53.6311 14.7599 53.5301 15.1269 53.6201 15.4729C53.7101 15.8189 53.9781 16.0899 54.3231 16.1849C56.4881 16.7779 58.0001 18.7589 58.0001 21.0009C58.0001 23.2049 56.5771 25.1219 54.4581 25.7699C54.1341 25.8689 53.8821 26.1249 53.7891 26.4519C53.6961 26.7779 53.7741 27.1299 53.9971 27.3849C54.4551 27.9069 55.0001 28.7859 55.0001 30.0009C55.0001 32.2069 53.2061 34.0009 51.0001 34.0009H45.0001V30.4149L48.7071 26.7079L47.2931 25.2939L45.0001 27.5869V23.4149L48.7071 19.7079L47.2931 18.2939L45.0001 20.5869V16.4149L48.7071 12.708L47.2931 11.294L45.0001 13.587V9.00097H43.0001V13.587L40.7071 11.294L39.2932 12.708L43.0001 16.4149V20.5869L40.7071 18.2939L39.2932 19.7079L43.0001 23.4149V27.5869L40.7071 25.2939L39.2932 26.7079L43.0001 30.4149V34.0009H37.3962C37.4162 33.9059 37.4292 33.8089 37.4482 33.7139C37.4862 33.5219 37.5192 33.3279 37.5532 33.1349C37.6172 32.7709 37.6742 32.4039 37.7242 32.0349C37.7512 31.8339 37.7772 31.6339 37.8002 31.4319C37.8442 31.0439 37.8782 30.6529 37.9082 30.2609C37.9212 30.0819 37.9382 29.9039 37.9482 29.7249C37.9802 29.1529 38.0002 28.5799 38.0002 28.0009C38.0002 27.2849 37.9702 26.5799 37.9212 25.8839C37.9042 25.6479 37.8752 25.4169 37.8532 25.1819C37.8102 24.7319 37.7642 24.2839 37.7022 23.8449C37.6602 23.5449 37.6082 23.2509 37.5572 22.9549C37.4972 22.6099 37.4332 22.2679 37.3612 21.9319C37.2862 21.5769 37.2052 21.2279 37.1182 20.8809C37.0612 20.6569 36.9982 20.4379 36.9362 20.2179C36.0942 17.2269 34.7882 14.5839 33.0822 12.618L33.0542 12.472C33.0292 12.317 33.0002 12.162 33.0002 12.001C33.0002 9.79597 35.2422 8.00197 37.9992 8.00197ZM18.6942 16.4819C18.7272 16.4219 18.7472 16.3589 18.7672 16.2949C20.5902 13.041 23.1552 11.001 26.0002 11.001C27.9712 11.001 29.8052 11.988 31.3552 13.6679C31.3742 13.6929 31.3872 13.7229 31.4082 13.7459C33.1952 15.7199 34.5322 18.5269 35.2902 21.7469C35.3052 21.8109 35.3182 21.8769 35.3322 21.9419C35.4522 22.4719 35.5542 23.0149 35.6432 23.5649C35.6682 23.7199 35.6922 23.8749 35.7142 24.0319C35.7842 24.5189 35.8372 25.0139 35.8812 25.5129C35.8962 25.6829 35.9152 25.8499 35.9272 26.0209C35.9722 26.6739 36.0002 27.3339 36.0002 28.0009C36.0002 30.0709 35.7812 32.0859 35.3502 34.0009H34.0002H23.0002V31.0009H21.0002V34.0009H16.6642C16.6262 33.8349 16.5872 33.6689 16.5532 33.5009C16.5092 33.2869 16.4662 33.0739 16.4282 32.8579C16.3712 32.5399 16.3242 32.2179 16.2782 31.8949C16.2492 31.6859 16.2172 31.4789 16.1922 31.2679C16.1502 30.9099 16.1212 30.5479 16.0932 30.1859C16.0792 30.0069 16.0602 29.8289 16.0502 29.6489C16.0182 29.1039 16.0002 28.5549 16.0002 28.0009C16.0002 27.4479 16.0182 26.9019 16.0492 26.3629C16.0702 25.9999 16.1062 25.6409 16.1402 25.2829C16.1552 25.1239 16.1652 24.9629 16.1832 24.8059C16.5372 21.7279 17.3982 18.8479 18.6942 16.4819ZM2.27529 23.4379C1.8163 21.9089 2.09929 20.2969 3.05229 19.0169C4.00529 17.7349 5.46728 17.0009 7.06428 17.0009H16.2072C15.9362 17.6079 15.6962 18.2439 15.4732 18.8929C15.4602 18.9319 15.4462 18.9699 15.4332 19.0089C15.2662 19.5019 15.1122 20.0039 14.9732 20.5179C14.9612 20.5619 14.9482 20.6039 14.9362 20.6479C14.7922 21.1939 14.6622 21.7489 14.5502 22.3139C14.5342 22.3959 14.5222 22.4799 14.5072 22.5629C14.4212 23.0199 14.3462 23.4819 14.2812 23.9489C14.2552 24.1349 14.2342 24.3229 14.2122 24.5109C14.1652 24.9069 14.1272 25.3049 14.0962 25.7069C14.0822 25.8909 14.0662 26.0729 14.0553 26.2579C14.0223 26.8349 14.0002 27.4159 14.0002 28.0009C14.0002 28.5789 14.0202 29.1529 14.0522 29.7229C14.0622 29.9039 14.0792 30.0829 14.0922 30.2629C14.1212 30.6549 14.1552 31.0449 14.1992 31.4319C14.2222 31.6349 14.2482 31.8359 14.2762 32.0369C14.3262 32.4059 14.3832 32.7709 14.4472 33.1339C14.4812 33.3279 14.5142 33.5219 14.5522 33.7149C14.5712 33.8099 14.5842 33.9069 14.6042 34.0009H5.44428L2.27529 23.4379ZM54.0711 41.0008H47.0001V43.0008H52.8211L49.0711 49.0008H30.0002V51.0008H47.8211L43.4461 58.0008H17.5352L2.86929 36.0009H4.70028H15.8632H33.9432C34.0932 36.0149 34.3402 36.0229 34.8242 36.0229C35.2202 36.0229 35.7752 36.0169 36.5662 36.0059L51.0001 36.0009H57.1961L54.0711 41.0008Z" fill="url(#paint6_linear)"/>
</g>
<defs>
<linearGradient id="paint0_linear" x1="41" y1="41" x2="41" y2="43" gradientUnits="userSpaceOnUse">
<stop stop-color="#97CC3B"/>
<stop offset="1" stop-color="#F99C1D"/>
</linearGradient>
<linearGradient id="paint1_linear" x1="7.66698" y1="22" x2="7.66698" y2="24" gradientUnits="userSpaceOnUse">
<stop stop-color="#97CC3B"/>
<stop offset="1" stop-color="#F99C1D"/>
</linearGradient>
<linearGradient id="paint2_linear" x1="8.66698" y1="27" x2="8.66698" y2="29" gradientUnits="userSpaceOnUse">
<stop stop-color="#97CC3B"/>
<stop offset="1" stop-color="#F99C1D"/>
</linearGradient>
<linearGradient id="paint3_linear" x1="27" y1="21.0001" x2="27" y2="25" gradientUnits="userSpaceOnUse">
<stop stop-color="#97CC3B"/>
<stop offset="1" stop-color="#F99C1D"/>
</linearGradient>
<linearGradient id="paint4_linear" x1="31" y1="28" x2="31" y2="32" gradientUnits="userSpaceOnUse">
<stop stop-color="#97CC3B"/>
<stop offset="1" stop-color="#F99C1D"/>
</linearGradient>
<linearGradient id="paint5_linear" x1="21.0826" y1="16.1771" x2="21.0826" y2="26.316" gradientUnits="userSpaceOnUse">
<stop stop-color="#97CC3B"/>
<stop offset="1" stop-color="#F99C1D"/>
</linearGradient>
<linearGradient id="paint6_linear" x1="30" y1="0.00100708" x2="30" y2="60.0008" gradientUnits="userSpaceOnUse">
<stop stop-color="#97CC3B"/>
<stop offset="1" stop-color="#F99C1D"/>
</linearGradient>
<clipPath id="clip0">
<rect width="60" height="60" fill="white"/>
</clipPath>
</defs>
</svg>
