<svg width="20px" height="20px" class="hidden">
  <symbol version="1.1" id="search" xmlns="http://www.w3.org/2000/svg" xmlns:xlink="http://www.w3.org/1999/xlink" x="0px" y="0px" xml:space="preserve" viewBox="0 0 511.999 511.999">
    <g>
      <g>
        <path d="M225.773,0.616C101.283,0.616,0,101.622,0,225.773s101.284,225.157,225.773,225.157s225.774-101.006,225.774-225.157
			S350.263,0.616,225.773,0.616z M225.773,413.917c-104.084,0-188.761-84.406-188.761-188.145
			c0-103.745,84.677-188.145,188.761-188.145s188.761,84.4,188.761,188.145C414.535,329.511,329.858,413.917,225.773,413.917z"></path>
      </g>
    </g>
    <g>
      <g>
        <path d="M506.547,479.756L385.024,358.85c-7.248-7.205-18.963-7.174-26.174,0.068c-7.205,7.248-7.174,18.962,0.068,26.174
			l121.523,120.906c3.615,3.59,8.328,5.385,13.053,5.385c4.756,0,9.506-1.82,13.121-5.453
			C513.82,498.681,513.789,486.967,506.547,479.756z"></path>
      </g>
    </g>
    <g></g>
    <g></g>
    <g></g>
    <g></g>
    <g></g>
    <g></g>
    <g></g>
    <g></g>
    <g></g>
    <g></g>
    <g></g>
    <g></g>
    <g></g>
    <g></g>
    <g></g>
  </symbol>
  <symbol id="clock" viewBox="0 0 41 41" xmlns="http://www.w3.org/2000/svg">
    <path fill-rule="evenodd" clip-rule="evenodd" d="M20.3562 6.21249C11.8476 6.21249 4.95 13.1101 4.95 21.6187C4.95 30.1274 11.8476 37.025 20.3562 37.025C28.8649 37.025 35.7625 30.1274 35.7625 21.6187C35.7625 13.1101 28.8649 6.21249 20.3562 6.21249ZM1.7625 21.6187C1.7625 11.3497 10.0872 3.02499 20.3562 3.02499C30.6253 3.02499 38.95 11.3497 38.95 21.6187C38.95 31.8878 30.6253 40.2125 20.3562 40.2125C10.0872 40.2125 1.7625 31.8878 1.7625 21.6187Z" fill="#AED234"/>
    <path fill-rule="evenodd" clip-rule="evenodd" d="M20.3562 9.39999C21.2365 9.39999 21.95 10.1135 21.95 10.9937V20.7354L27.5759 24.2516C28.3223 24.7181 28.5493 25.7014 28.0827 26.4478C27.6162 27.1942 26.633 27.4211 25.8866 26.9546L19.5116 22.9702C19.0456 22.679 18.7625 22.1683 18.7625 21.6187V10.9937C18.7625 10.1135 19.476 9.39999 20.3562 9.39999Z" fill="#AED234"/>
    <path fill-rule="evenodd" clip-rule="evenodd" d="M8.7332 1.36679C9.3556 1.98919 9.3556 2.9983 8.7332 3.6207L3.4207 8.9332C2.7983 9.55559 1.78919 9.55559 1.1668 8.9332C0.544397 8.3108 0.544397 7.30169 1.1668 6.67929L6.4793 1.36679C7.10169 0.744394 8.1108 0.744394 8.7332 1.36679Z" fill="#AED234"/>
    <path fill-rule="evenodd" clip-rule="evenodd" d="M31.9793 1.36679C31.3569 1.98919 31.3569 2.9983 31.9793 3.6207L37.2918 8.9332C37.9142 9.55559 38.9233 9.55559 39.5457 8.9332C40.1681 8.3108 40.1681 7.30169 39.5457 6.67929L34.2332 1.36679C33.6108 0.744394 32.6017 0.744394 31.9793 1.36679Z" fill="#AED234"/>
  </symbol>
  <symbol id="arrow-right" viewBox="0 0 14 10" xmlns="http://www.w3.org/2000/svg">
    <path d="M8.46967 1.53033C8.17678 1.23744 8.17678 0.762563 8.46967 0.46967C8.76256 0.176777 9.23744 0.176777 9.53033 0.46967L13.5303 4.46967C13.8232 4.76256 13.8232 5.23744 13.5303 5.53033L9.53033 9.53033C9.23744 9.82322 8.76256 9.82322 8.46967 9.53033C8.17678 9.23744 8.17678 8.76256 8.46967 8.46967L11.1893 5.75H1.5C1.08579 5.75 0.75 5.41421 0.75 5C0.75 4.58579 1.08579 4.25 1.5 4.25H11.1893L8.46967 1.53033Z" fill="#FF7324"/>
  </symbol>
  <symbol id="bookmark" xmlns="http://www.w3.org/2000/svg" viewBox="0 0 13 15">
    <path fill-rule="evenodd" clip-rule="evenodd" d="M10.1677 1.43307C7.85419 1.0919 5.47912 1.0919 3.16561 1.43307C2.73023 1.49728 2.38444 1.79152 2.29765 2.17052C1.50801 5.61889 1.46492 9.16734 2.17065 12.6298L2.31657 13.3456L5.59131 10.6091C6.19392 10.1055 7.13939 10.1055 7.742 10.6091L11.0167 13.3456L11.1627 12.6298C11.8684 9.16734 11.8253 5.61889 11.0357 2.17052C10.9489 1.79152 10.6031 1.49728 10.1677 1.43307ZM2.94435 0.272082C5.40435 -0.0906939 7.92897 -0.090694 10.389 0.272082C11.3697 0.416704 12.1508 1.07892 12.3476 1.93807C13.1704 5.53157 13.2153 9.22937 12.4799 12.8375L12.2823 13.807C12.1165 14.6207 10.9887 14.9459 10.3074 14.3765L6.82028 11.4625C6.73419 11.3906 6.59912 11.3906 6.51304 11.4625L3.02595 14.3765C2.3446 14.9459 1.21686 14.6207 1.051 13.807L0.853399 12.8375C0.117965 9.22937 0.162863 5.53158 0.985739 1.93807C1.18247 1.07893 1.96366 0.416704 2.94435 0.272082Z"></path>
  </symbol>
  <symbol id="chevron-left" viewBox="0 0 11 18" xmlns="http://www.w3.org/2000/svg">
    <path fill-rule="evenodd" clip-rule="evenodd" d="M9.72227 0.694415C10.2592 1.23139 10.2592 2.10199 9.72227 2.63896L3.36121 9.00002L9.72227 15.3611C10.2592 15.8981 10.2592 16.7687 9.72227 17.3056C9.1853 17.8426 8.3147 17.8426 7.77773 17.3056L0.4444 9.97229C-0.0925709 9.43532 -0.0925709 8.56472 0.4444 8.02775L7.77773 0.694415C8.3147 0.157444 9.1853 0.157444 9.72227 0.694415Z" fill="#6D6D6D"/>
  </symbol>
  <symbol id="chevron-right" viewBox="0 0 11 18" xmlns="http://www.w3.org/2000/svg">
    <path fill-rule="evenodd" clip-rule="evenodd" d="M1.27777 17.3056C0.740801 16.7686 0.740801 15.898 1.27777 15.361L7.63883 8.99998L1.27777 2.63892C0.740801 2.10195 0.740801 1.23135 1.27777 0.694374C1.81474 0.157402 2.68534 0.157402 3.22231 0.694374L10.5556 8.02771C11.0926 8.56468 11.0926 9.43528 10.5556 9.97225L3.22231 17.3056C2.68534 17.8426 1.81474 17.8426 1.27777 17.3056Z" fill="#6D6D6D"/>
  </symbol>
  <symbol id="instagram" viewBox="0 0 21 21" xmlns="http://www.w3.org/2000/svg">
    <path d="M14.9195 5.40222C14.9195 4.8182 15.393 4.34475 15.977 4.34475C16.561 4.34475 17.0345 4.8182 17.0345 5.40222C17.0345 5.98625 16.561 6.45969 15.977 6.45969C15.393 6.45969 14.9195 5.98625 14.9195 5.40222Z" />
    <path fill-rule="evenodd" clip-rule="evenodd" d="M10.6897 5.66659C7.91553 5.66659 5.66666 7.91546 5.66666 10.6896C5.66666 13.4637 7.91553 15.7126 10.6897 15.7126C13.4638 15.7126 15.7126 13.4637 15.7126 10.6896C15.7126 7.91546 13.4638 5.66659 10.6897 5.66659ZM7.25287 10.6896C7.25287 8.7915 8.79157 7.2528 10.6897 7.2528C12.5877 7.2528 14.1264 8.7915 14.1264 10.6896C14.1264 12.5877 12.5877 14.1264 10.6897 14.1264C8.79157 14.1264 7.25287 12.5877 7.25287 10.6896Z" />
    <path fill-rule="evenodd" clip-rule="evenodd" d="M16.2501 0.995757C12.5843 0.58605 8.79503 0.58605 5.12922 0.995757C3.00153 1.23356 1.28385 2.90966 1.0337 5.04843C0.595335 8.79642 0.595335 12.5827 1.0337 16.3307C1.28385 18.4695 3.00153 20.1456 5.12922 20.3834C8.79503 20.7931 12.5843 20.7931 16.2501 20.3834C18.3778 20.1456 20.0955 18.4695 20.3456 16.3307C20.784 12.5827 20.784 8.79642 20.3456 5.04843C20.0955 2.90966 18.3778 1.23356 16.2501 0.995757ZM5.30541 2.57215C8.85412 2.17553 12.5252 2.17553 16.0739 2.57215C17.4805 2.72935 18.6072 3.83929 18.7702 5.23269C19.1942 8.85826 19.1942 12.5209 18.7702 16.1465C18.6072 17.5399 17.4805 18.6498 16.0739 18.807C12.5252 19.2036 8.85412 19.2036 5.30541 18.807C3.89886 18.6498 2.77214 17.5399 2.60916 16.1465C2.18512 12.5209 2.18512 8.85826 2.60916 5.23269C2.77214 3.83929 3.89886 2.72935 5.30541 2.57215Z"/>
  </symbol>
  <symbol id="twitter" viewBox="0 0 24 20" xmlns="http://www.w3.org/2000/svg">
    <path fill-rule="evenodd" clip-rule="evenodd" d="M14.8732 0.536774C15.4108 0.444687 16.0129 0.41394 16.5794 0.509792C17.5913 0.680978 18.5259 1.15127 19.2647 1.85634C19.7477 1.86727 20.2223 1.77212 20.6422 1.63649C20.9977 1.5217 21.2979 1.3831 21.5083 1.2735C21.6129 1.21901 21.6937 1.17253 21.7462 1.14106C21.7725 1.12535 21.7915 1.11345 21.8029 1.10627L21.8129 1.09986C22.1268 0.890772 22.5447 0.931467 22.8121 1.19743C23.0796 1.46345 23.1227 1.88107 22.9151 2.19609C22.6955 2.5295 22.3906 3.12388 22.0489 3.78983C21.9952 3.89454 21.9406 4.00102 21.8853 4.10853C21.6893 4.48918 21.4884 4.87391 21.3012 5.20398C21.1836 5.41123 21.0578 5.62164 20.931 5.80346V6.09297C20.9391 7.15639 20.8171 8.21427 20.5696 9.24342C20.4138 9.89096 20.2084 10.5271 19.9543 11.1461C19.2961 12.75 18.325 14.2066 17.0975 15.4309C15.8701 16.6552 14.411 17.6226 12.8055 18.2767C11.2014 18.9302 9.48328 19.2578 7.7513 19.2404C5.24053 19.2426 2.78258 18.5192 0.673224 17.1573C0.362538 16.9567 0.23173 16.568 0.357925 16.2203C0.48412 15.8727 0.833818 15.6585 1.20084 15.7039C1.51846 15.7432 1.83825 15.7624 2.1583 15.7613C3.30824 15.7581 4.43629 15.504 5.46612 15.0254C5.13878 14.8764 4.82626 14.6926 4.53423 14.4761C3.67587 13.8396 3.03725 12.9514 2.70725 11.935C2.62149 11.6709 2.68012 11.3811 2.86181 11.1711C2.86506 11.1674 2.86835 11.1637 2.87166 11.16C2.67759 10.9869 2.49599 10.7985 2.32881 10.5958C1.57661 9.68408 1.16242 8.5405 1.15631 7.35852L1.15629 7.35442L1.1563 7.30155C1.1563 7.02041 1.30514 6.76027 1.54752 6.61781C1.60896 6.5817 1.67408 6.55451 1.74107 6.53628C1.38329 5.8224 1.19724 5.03411 1.1986 4.23439C1.19817 3.32839 1.43483 2.43803 1.88506 1.6518C2.01504 1.42483 2.24856 1.27653 2.50926 1.2554C2.76995 1.23428 3.0243 1.34305 3.18912 1.54613C4.207 2.8003 5.47732 3.82632 6.91759 4.55753C7.65796 4.93341 8.43473 5.22707 9.23396 5.43479C9.68205 5.55125 10.1372 5.6407 10.597 5.70248C10.5767 4.93766 10.7277 4.17325 11.0447 3.46693C11.5096 2.43079 12.3054 1.57828 13.307 1.0431C13.7312 0.816457 14.2943 0.635934 14.8732 0.536774ZM2.94689 8.51803C3.08398 8.90389 3.28794 9.26589 3.55236 9.5864C4.07192 10.2162 4.79306 10.6472 5.5938 10.8064C5.95047 10.8774 6.21318 11.1818 6.23119 11.545C6.24919 11.9083 6.01787 12.2372 5.66996 12.3431C5.38181 12.4307 5.08659 12.4918 4.788 12.5258C4.98531 12.7801 5.2174 13.0079 5.47903 13.2019C6.07246 13.642 6.78831 13.8861 7.52697 13.9003C7.8621 13.9068 8.15699 14.1232 8.26361 14.441C8.37023 14.7588 8.26556 15.1093 8.00213 15.3166C6.89267 16.1895 5.60975 16.7983 4.25031 17.1091C5.37703 17.4699 6.5587 17.6557 7.75395 17.6542L7.76315 17.6542C9.28597 17.67 10.7967 17.3823 12.207 16.8077C13.6174 16.2331 14.8991 15.3833 15.9773 14.3078C17.0556 13.2323 17.9087 11.9528 18.4869 10.5439C18.7101 10.0001 18.8905 9.44131 19.0273 8.87249C19.245 7.96754 19.3521 7.03732 19.3448 6.10223L19.3448 6.09603V5.53557C19.3448 5.34327 19.4147 5.15751 19.5414 5.01288C19.6147 4.9293 19.7428 4.73625 19.9215 4.42123C20.0914 4.12183 20.2794 3.76239 20.4749 3.38256C20.4868 3.35959 20.4986 3.3365 20.5106 3.3133C20.0034 3.42343 19.4286 3.48116 18.826 3.41604C18.6352 3.39541 18.4583 3.30628 18.3282 3.16517C17.7964 2.5885 17.0883 2.20463 16.3148 2.07377C15.9716 2.01571 15.5567 2.029 15.141 2.10021C14.6894 2.17758 14.2963 2.31295 14.0545 2.44214C13.3626 2.8118 12.813 3.40065 12.4919 4.11633C12.1707 4.83201 12.0962 5.63405 12.28 6.39665C12.3386 6.63978 12.2791 6.8963 12.1194 7.08879C11.9597 7.28128 11.7186 7.38719 11.4689 7.37456C10.577 7.32945 9.69455 7.1934 8.83496 6.96999C7.92564 6.73366 7.04188 6.39955 6.19952 5.9719C4.95934 5.34227 3.8299 4.52051 2.85191 3.53951C2.8073 3.76751 2.78465 4.00018 2.7848 4.23436L2.7848 4.23639C2.7837 4.81876 2.92661 5.39236 3.20083 5.90613C3.47504 6.41991 3.87204 6.8579 4.35648 7.18112C4.65048 7.37728 4.7792 7.74431 4.67213 8.08113C4.56506 8.41796 4.24803 8.64328 3.89473 8.63367C3.57474 8.62496 3.25743 8.58604 2.94689 8.51803Z" />
  </symbol>
  <symbol id="youtube" viewBox="0 0 23 17" xmlns="http://www.w3.org/2000/svg">
    <path fill-rule="evenodd" clip-rule="evenodd" d="M9.72988 4.83809C9.48487 4.69108 9.17972 4.68723 8.93108 4.82801C8.68243 4.96879 8.52873 5.23244 8.52873 5.51817V11.863C8.52873 12.1487 8.68243 12.4124 8.93108 12.5532C9.17972 12.6939 9.48487 12.6901 9.72988 12.5431L15.0172 9.37067C15.2561 9.22733 15.4023 8.96917 15.4023 8.69058C15.4023 8.412 15.2561 8.15384 15.0172 8.0105L9.72988 4.83809ZM13.0677 8.69058L10.1149 10.4622V6.91894L13.0677 8.69058Z"/>
    <path fill-rule="evenodd" clip-rule="evenodd" d="M16.7566 0.908951C13.2155 0.631912 9.65815 0.631912 6.11705 0.908951L3.74757 1.09433C2.30669 1.20706 1.12795 2.28695 0.889766 3.71247C0.339072 7.00837 0.339072 10.3728 0.889766 13.6687C1.12795 15.0942 2.3067 16.1741 3.74757 16.2868L6.11705 16.4722C9.65815 16.7493 13.2155 16.7493 16.7566 16.4722L19.126 16.2868C20.5669 16.1741 21.7457 15.0942 21.9839 13.6687C22.5345 10.3728 22.5345 7.00837 21.9839 3.71247C21.7457 2.28695 20.5669 1.20706 19.126 1.09433L16.7566 0.908951ZM6.24077 2.49033C9.69952 2.21973 13.1741 2.21973 16.6329 2.49033L19.0023 2.6757C19.7168 2.7316 20.3012 3.26705 20.4193 3.97387C20.9411 7.0967 20.9411 10.2845 20.4193 13.4073C20.3012 14.1141 19.7168 14.6496 19.0023 14.7055L16.6329 14.8908C13.1741 15.1614 9.69951 15.1614 6.24077 14.8908L3.87129 14.7055C3.15685 14.6496 2.57238 14.1141 2.45428 13.4073C1.93251 10.2845 1.93251 7.0967 2.45428 3.97387C2.57238 3.26705 3.15685 2.7316 3.87129 2.6757L6.24077 2.49033Z"/>
  </symbol>
  <symbol id="facebook" viewBox="0 0 13 21" xmlns="http://www.w3.org/2000/svg">
    <path fill-rule="evenodd" clip-rule="evenodd" d="M4.71109 2.00643C5.75224 0.965283 7.16434 0.380371 8.63675 0.380371H11.4919C11.9299 0.380371 12.285 0.735456 12.285 1.17347V4.98037C12.285 5.41839 11.9299 5.77347 11.4919 5.77347H8.63675C8.59468 5.77347 8.55434 5.79019 8.52459 5.81993C8.49484 5.84968 8.47813 5.89003 8.47813 5.93209V7.99416H11.4919C11.7361 7.99416 11.9668 8.10668 12.1171 8.29918C12.2674 8.49168 12.3206 8.74269 12.2613 8.97962L11.3096 12.7865C11.2214 13.1396 10.9041 13.3873 10.5402 13.3873H8.47813V20.208C8.47813 20.646 8.12305 21.0011 7.68503 21.0011H3.87813C3.44011 21.0011 3.08503 20.646 3.08503 20.208V13.3873H1.02296C0.584943 13.3873 0.229858 13.0322 0.229858 12.5942V8.78727C0.229858 8.34925 0.584943 7.99416 1.02296 7.99416H3.08503V5.93209C3.08503 4.45969 3.66994 3.04758 4.71109 2.00643ZM8.63675 1.96658C7.58503 1.96658 6.57639 2.38437 5.83271 3.12805C5.08903 3.87173 4.67124 4.88037 4.67124 5.93209V8.78727C4.67124 9.22529 4.31615 9.58037 3.87813 9.58037H1.81606V11.8011H3.87813C4.31615 11.8011 4.67124 12.1561 4.67124 12.5942V19.4149H6.89193V12.5942C6.89193 12.1561 7.24701 11.8011 7.68503 11.8011H9.92097L10.4761 9.58037H7.68503C7.24701 9.58037 6.89193 9.22529 6.89193 8.78727V5.93209C6.89193 5.46934 7.07576 5.02553 7.40297 4.69832C7.73019 4.3711 8.174 4.18727 8.63675 4.18727H10.6988V1.96658H8.63675Z"/>
  </symbol>
  <symbol id="arrow-up" xmlns="http://www.w3.org/2000/svg" viewBox="0 0 512 512">
    <path d="m391.968 146.624a341.723 341.723 0 0 1 -27.011 131.284 342.818 342.818 0 0 1 -73.712 109.337 343 343 0 0 1 -243.245 100.755 24 24 0 0 1 0-48 294.062 294.062 0 0 0 209.3-86.7 294 294 0 0 0 86.667-206.59l24.033-32.044zm86.432 48.576a24 24 0 0 0 4.8-33.6l-96-128a24 24 0 0 0 -38.4 0l-96 128a24 24 0 1 0 38.4 28.8l76.8-102.4 76.8 102.4a24 24 0 0 0 33.6 4.8z"></path>
  </symbol>
  <symbol id="watch" viewBox="0 0 24 24" xmlns="http://www.w3.org/2000/svg">
    <path d="M12 0C5.3828 0 0 5.38331 0 12C0 18.6167 5.3828 24 12 24C18.6172 24 24 18.6167 24 12C24 5.38331 18.6172 0 12 0ZM12 23C5.93456 23 0.999984 18.0654 0.999984 12C0.999984 5.93456 5.93456 0.999984 12 0.999984C18.0654 0.999984 23 5.93456 23 12C23 18.0654 18.0654 23 12 23Z" fill="#343434"/>
    <path d="M16.7705 11.5796L9.77053 7.07957C9.6172 6.97949 9.41897 6.9741 9.26077 7.061C9.09961 7.14889 9 7.31689 9 7.49999V16.5C9 16.6831 9.09961 16.8511 9.26077 16.939C9.33497 16.9795 9.41798 17 9.50002 17C9.59377 17 9.6885 16.9736 9.77053 16.9204L16.7705 12.4204C16.9131 12.3286 17 12.1699 17 12C17 11.8301 16.9131 11.6714 16.7705 11.5796ZM9.99998 15.584V8.41602L15.5752 12L9.99998 15.584Z" fill="#343434"/>
  </symbol>
  <symbol id="dish" viewBox="0 0 50 50" fill="none" xmlns="http://www.w3.org/2000/svg">
    <g clip-path="url(#clip0)">
    <path d="M47.8828 22.2832C47.8828 18.1467 46.739 14.1726 44.6626 10.7441C45.1683 9.98501 45.8997 9.25471 46.9458 8.86355C47.3183 8.72413 47.5591 8.3763 47.5591 7.97714C47.5591 7.57799 47.3184 7.23015 46.9457 7.09063C44.9923 6.36033 44.1353 4.44719 43.7984 3.37189C43.6741 2.97507 43.3108 2.70832 42.8945 2.70832C42.4782 2.70832 42.115 2.97488 41.9906 3.37179C41.783 4.03457 41.3773 5.01524 40.6397 5.84145C39.8186 5.09076 38.9371 4.39499 37.9967 3.76431C37.661 3.53912 37.2064 3.62878 36.9814 3.96442C36.7562 4.30006 36.8458 4.75473 37.1815 4.97972C38.0016 5.52972 38.7728 6.13367 39.4955 6.78221C39.2928 6.89949 39.076 7.0037 38.8432 7.09083C38.4707 7.23025 38.23 7.57808 38.23 7.97724C38.23 8.37639 38.4707 8.72423 38.8433 8.86375C40.7967 9.59405 41.6538 11.5073 41.9907 12.5827C42.1151 12.9794 42.4783 13.2462 42.8946 13.2462C43.3108 13.2462 43.674 12.9795 43.7985 12.5826C43.8238 12.5016 43.8526 12.4153 43.8841 12.3256C45.5237 15.3348 46.4193 18.7454 46.4193 22.2832C46.4193 28.9583 43.2608 34.9085 38.3609 38.721L37.6828 32.3829C39.9741 29.6463 41.3555 26.1232 41.3555 22.2831C41.3555 17.2391 38.9716 12.7427 35.2728 9.857C35.2728 9.857 34.9476 6.81724 34.9476 6.81714C34.7726 5.18247 33.043 4.17839 31.5524 4.75844C31.2518 4.87542 30.9748 5.05115 30.7412 5.2736C30.2158 5.77403 29.9986 6.43731 29.9649 7.14312C28.5782 6.7427 27.1138 6.52736 25.5999 6.52736C23.1471 6.52736 20.8242 7.09209 18.7522 8.09618L15.9571 7.72697C15.2806 7.6377 14.6571 8.1154 14.5678 8.79204L14.2239 11.3951C11.5129 14.2263 9.84406 18.063 9.84406 22.2831C9.84406 26.2992 11.3556 29.9682 13.8383 32.7538L13.031 38.866C8.02216 35.0605 4.78023 29.0444 4.78023 22.2831C4.78023 16.722 6.94587 11.4937 10.8782 7.5613C14.8101 3.62908 20.0385 1.46353 25.5997 1.46353C28.6397 1.46353 31.5695 2.10378 34.3076 3.36632C34.6749 3.5359 35.1094 3.3752 35.2785 3.00825C35.4477 2.64119 35.2875 2.20652 34.9205 2.03734C31.9888 0.685422 28.8528 0 25.5997 0C19.6476 0 14.0517 2.31785 9.84299 6.52658C5.63425 10.7353 3.31641 16.3311 3.31641 22.2832C3.31641 28.2353 5.63425 33.8311 9.84309 38.0398C10.7682 38.965 11.762 39.7962 12.8105 40.5339L12.6426 41.8042C12.5898 42.2048 12.8716 42.5726 13.2722 42.6255C13.6733 42.6787 14.0406 42.3965 14.0936 41.9959L16.2093 25.9802L18.5052 26.2834L15.6847 47.6344C15.502 49.018 13.2076 48.7033 13.389 47.3292C13.398 47.2611 13.6467 45.3784 13.6467 45.3784C13.6996 44.9778 13.4177 44.6101 13.0171 44.5571C12.6166 44.5043 12.2487 44.786 12.1958 45.1867L11.9378 47.1395C11.85 47.8042 12.0263 48.4634 12.4343 48.9955C13.7898 50.7636 16.8398 50.0889 17.1357 47.8262L17.7534 43.1498C20.2287 44.0793 22.8764 44.5667 25.5997 44.5667C28.3636 44.5667 31.0505 44.066 33.5576 43.1092C33.5576 43.1092 34.0549 47.7571 34.0557 47.7645C34.2961 50.0118 37.3429 50.7655 38.7266 49.0499C39.1475 48.528 39.3401 47.8734 39.2688 47.2067L38.5434 40.4263C39.5352 39.7157 40.4764 38.9199 41.3563 38.04C45.5649 33.8311 47.8828 28.2353 47.8828 22.2832ZM42.8945 10.8985C42.406 9.88871 41.6129 8.74608 40.3524 7.97714C41.6131 7.20801 42.406 6.06557 42.8945 5.05583C43.383 6.06567 44.1759 7.2082 45.4364 7.97714C44.1758 8.74628 43.383 9.88871 42.8945 10.8985ZM39.8919 22.2832C39.8919 25.2332 38.9928 27.9767 37.4551 30.2556L36.8997 25.0646L35.5005 11.9867C38.2055 14.5888 39.8919 18.2424 39.8919 22.2832ZM31.4351 7.03336C31.4491 6.74319 31.5855 6.46726 31.8109 6.28295C32.438 5.77579 33.4077 6.18353 33.4922 6.97286C33.4927 6.97745 35.3667 24.4927 35.3667 24.4927L33.0639 24.7391L32.8508 22.7481C32.7825 22.1089 32.475 21.5278 31.9851 21.1118L31.1972 20.4424C30.955 20.2366 30.8193 19.9241 30.8345 19.6066C30.8346 19.6065 31.4351 7.03345 31.4351 7.03336ZM25.5997 7.9909C27.0951 7.9909 28.537 8.22321 29.8927 8.65134L29.3728 19.5366C29.3361 20.3044 29.6638 21.0599 30.2496 21.5577C30.6957 21.9367 31.3062 22.277 31.3958 22.9038L31.6865 25.6224L32.6583 34.7045C30.5745 35.8935 28.1657 36.5753 25.5997 36.5753C23.1583 36.5753 20.8587 35.9588 18.8464 34.8751L20.0518 25.7493L20.5022 22.3404C20.525 22.1676 20.6383 22.0214 20.7908 21.9681C22.1897 21.4785 23.2228 20.1838 23.4229 18.6696L24.5535 10.1112C24.5968 9.78343 24.5098 9.45834 24.3087 9.19588C24.1075 8.93341 23.8161 8.76501 23.4883 8.72179L21.8139 8.5006C23.0201 8.16867 24.2894 7.9909 25.5997 7.9909ZM15.3043 21.6539L14.854 25.0628L14.1013 30.7614C12.3465 28.3879 11.3074 25.4548 11.3074 22.2832C11.3074 19.2587 12.2521 16.4509 13.8614 14.1386L13.437 17.3506C13.237 18.8649 13.8985 20.3834 15.1223 21.2193C15.2557 21.3104 15.3272 21.481 15.3043 21.6539ZM16.4008 24.529L16.7553 21.8455C16.8512 21.1196 16.5418 20.4165 15.9478 20.0107C15.1755 19.4833 14.7595 18.5142 14.8879 17.5421L15.9889 9.20739L17.3556 9.38799L16.4358 16.3511C16.3829 16.7517 16.6648 17.1195 17.0655 17.1724C17.098 17.1767 17.1303 17.1788 17.1622 17.1788C17.5238 17.1788 17.8382 16.9108 17.8868 16.5427L18.8066 9.57961L20.2552 9.77095L19.3354 16.7341C19.2825 17.1347 19.5644 17.5024 19.9651 17.5554C19.9976 17.5597 20.0299 17.5617 20.0618 17.5617C20.4234 17.5617 20.7377 17.2938 20.7863 16.9257L21.7061 9.96247L23.0729 10.143L21.9719 18.4777C21.8435 19.4498 21.1901 20.2776 20.3073 20.5865C19.6284 20.8241 19.147 21.4226 19.0512 22.1485L18.6967 24.832L16.4008 24.529ZM25.5997 43.1029C22.9007 43.1029 20.3207 42.5852 17.952 41.6462L18.643 36.4154C20.7425 37.4532 23.1036 38.039 25.5997 38.039C28.2034 38.039 30.6607 37.4025 32.8268 36.2795L33.3947 41.5863C30.9856 42.5627 28.3548 43.1029 25.5997 43.1029ZM37.5875 48.1308C37.344 48.4327 37.0073 48.5014 36.663 48.5381C36.0885 48.5994 35.5724 48.1826 35.5108 47.6087L33.2195 26.1943L35.5225 25.948L37.8136 47.3623C37.8433 47.6402 37.763 47.9132 37.5875 48.1308Z" fill="#343434"/>
    <path d="M9.23826 40.8595C7.74809 40.3024 7.09086 38.8317 6.83162 38.0045C6.71308 37.6262 6.3669 37.3721 5.97019 37.3721C5.57347 37.3721 5.2273 37.6262 5.10875 38.0045V38.0046C4.84961 38.8317 4.19228 40.3023 2.70241 40.8594C2.34686 40.9922 2.11719 41.324 2.11719 41.7045C2.11719 42.085 2.34686 42.4167 2.70211 42.5494C4.19228 43.1067 4.84951 44.5773 5.10875 45.4046C5.2273 45.7829 5.57347 46.0369 5.97019 46.0369C6.3669 46.0369 6.71308 45.7829 6.83162 45.4045C7.09077 44.5773 7.74799 43.1066 9.23797 42.5495C9.59351 42.4167 9.82319 42.085 9.82319 41.7045C9.82319 41.324 9.59341 40.9923 9.23826 40.8595ZM5.97019 43.6908C5.5962 42.9957 5.04211 42.256 4.2318 41.7046C5.04221 41.1533 5.5962 40.4136 5.97019 39.7184C6.34417 40.4135 6.89826 41.1532 7.70857 41.7046C6.89826 42.2559 6.34427 42.9956 5.97019 43.6908Z" fill="#343434"/>
    </g>
    <defs>
    <clipPath id="clip0">
    <rect width="50" height="50" fill="white"/>
    </clipPath>
    </defs>
  </symbol>

</svg>
